<?xml version="1.0" encoding="utf-8"?>
<!-- Generator: Adobe Illustrator 16.0.0, SVG Export Plug-In . SVG Version: 6.00 Build 0)  -->
<!DOCTYPE svg PUBLIC "-//W3C//DTD SVG 1.1//EN" "http://www.w3.org/Graphics/SVG/1.1/DTD/svg11.dtd">
<svg version="1.1" id="Layer_1" xmlns="http://www.w3.org/2000/svg" xmlns:xlink="http://www.w3.org/1999/xlink" x="0px" y="0px"
	 width="207.228px" height="205px" viewBox="0 0 207.228 205" enable-background="new 0 0 207.228 205" xml:space="preserve">
<g>
	<path d="M207.228,205C138.151,205,69.075,205,0,205C0,136.668,0,68.333,0,0c69.075,0,138.151,0,207.228,0
		C207.228,68.333,207.228,136.668,207.228,205z M141.994,193.375c15.275,0.165,33.537,0.1,49.143,0.093
		c1.421-0.001,2.844-0.001,4.27-0.001c0-1.406,0-2.812,0-4.217c0-59.616,0-118.421,0-177.23c-12.568,0-24.677,0-37.313,0
		c0,34.754,0,69.002,0,103.895c-5.598,0-10.687,0-16.193,0c0,25.298-0.036,49.949,0.13,74.602L141.994,193.375z M11.797,11.768
		c0,60.798,0,120.983,0,181.386c17.784,0,35.14,0,52.808,0c0-25.833,0-51.334,0-77.429c-5.204,0-10.124,0-15.679,0
		c0-34.967,0-69.352,0-103.957C36.267,11.768,24.272,11.768,11.797,11.768z M77.237,115.716c0,26.331,0,51.813,0,77.301
		c17.881,0,35.366,0,52.749,0c0-25.974,0-51.475,0-77.419c-5.147,0-9.908,0-15.285,0c0-34.815,0-69.187,0-103.737
		c-7.598,0-14.553,0-22.201,0c0,34.706,0,69.07,0,103.855C87.052,115.716,82.296,115.716,77.237,115.716z"/>
	<path display="none" fill-rule="evenodd" clip-rule="evenodd" fill="#FFFFFF" d="M0,0c0,68.333,0,136.668,0,205
		c-0.373-0.555-1.069-1.108-1.069-1.664c-0.048-67.224-0.048-134.448,0-201.672C-1.069,1.108-0.373,0.555,0,0z"/>
	<path display="none" fill-rule="evenodd" clip-rule="evenodd" fill="#FFFFFF" d="M207.228,205c0-68.332,0-136.667,0-205
		c0.371,0.558,1.067,1.115,1.067,1.67c0.048,67.22,0.048,134.439,0,201.657C208.295,203.885,207.599,204.442,207.228,205z"/>
	<path display="none" fill-rule="evenodd" clip-rule="evenodd" fill="#FFFFFF" d="M195.406,193.467
		c-17.094,0-33.764,0.055-50.43-0.125c-1.035-0.012-2.94-1.834-2.947-2.826c-0.166-24.652-0.13-49.304-0.13-74.602
		c5.507,0,10.596,0,16.193,0c0-34.893,0-69.141,0-103.895c12.637,0,24.745,0,37.313,0
		C195.406,72.215,195.406,132.405,195.406,193.467z"/>
	<path display="none" fill-rule="evenodd" clip-rule="evenodd" fill="#FFFFFF" d="M11.797,11.768c12.475,0,24.47,0,37.129,0
		c0,34.605,0,68.99,0,103.957c5.555,0,10.475,0,15.679,0c0,26.095,0,51.596,0,77.429c-17.668,0-35.024,0-52.808,0
		C11.797,132.751,11.797,72.565,11.797,11.768z"/>
	<path display="none" fill-rule="evenodd" clip-rule="evenodd" fill="#FFFFFF" d="M77.237,115.716c5.059,0,9.814,0,15.262,0
		c0-34.785,0-69.149,0-103.855c7.648,0,14.604,0,22.201,0c0,34.551,0,68.922,0,103.737c5.377,0,10.138,0,15.285,0
		c0,25.944,0,51.445,0,77.419c-17.383,0-34.867,0-52.749,0C77.237,167.529,77.237,142.047,77.237,115.716z"/>
</g>
</svg>
